<svg xmlns="http://www.w3.org/2000/svg" version="1.1" xmlns:xlink="http://www.w3.org/1999/xlink" xmlns:svgjs="http://svgjs.dev/svgjs" width="2000" height="1252" viewBox="0 0 2000 1252"><g transform="matrix(1,0,0,1,-1.2121212121212466,-2.01935483870966)"><svg viewBox="0 0 396 248" data-background-color="#ffffff" preserveAspectRatio="xMidYMid meet" height="1252" width="2000" xmlns="http://www.w3.org/2000/svg" xmlns:xlink="http://www.w3.org/1999/xlink"><g id="tight-bounds" transform="matrix(1,0,0,1,0.2400000000000091,0.4000000000000057)"><svg viewBox="0 0 395.52 247.2" height="247.2" width="395.52"><g><svg></svg></g><g><svg viewBox="0 0 395.52 247.2" height="247.2" width="395.52"><g transform="matrix(1,0,0,1,153.0203314285714,47.215199999999996)"><svg viewBox="0 0 89.47933714285715 152.7696" height="152.7696" width="89.47933714285715"><g><svg viewBox="0 0 89.47933714285715 152.7696" height="152.7696" width="89.47933714285715"><g><svg viewBox="0 0 89.47933714285715 152.7696" height="152.7696" width="89.47933714285715"><g id="textblocktransform"><svg viewBox="0 0 89.47933714285715 152.7696" height="152.7696" width="89.47933714285715" id="textblock"><g><svg viewBox="0 0 89.47933714285715 152.7696" height="152.7696" width="89.47933714285715"><g transform="matrix(1,0,0,1,0,0)"><svg width="89.47933714285715" viewBox="1.7999999999999998 -28 16.4 28" height="152.7696" data-palette-color="#000000"><path d="M18.2-26Q18.2-24.85 18-24L18-24Q18.2-23.2 18.2-22L18.2-22Q18.2-20.85 18-20L18-20 16-20Q16.2-19.2 16.2-18L16.2-18Q16.2-16.85 16-16L16-16 14-16Q14.2-15.2 14.2-14L14.2-14Q14.2-12.85 14-12L14-12 12-12Q12.2-11.2 12.2-10L12.2-10Q12.2-8.85 12-8L12-8Q12.2-7.2 12.2-6L12.2-6Q12.2-4.85 12-4L12-4Q12.2-3.2 12.2-2L12.2-2Q12.2-0.85 12 0L12 0 8 0Q7.8-0.85 7.8-2L7.8-2Q7.8-3.2 8-4L8-4Q7.8-4.85 7.8-6L7.8-6Q7.8-7.2 8-8L8-8Q7.8-8.85 7.8-10L7.8-10Q7.8-11.2 8-12L8-12 6-12Q5.8-12.85 5.8-14L5.8-14Q5.8-15.2 6-16L6-16 4-16Q3.8-16.85 3.8-18L3.8-18Q3.8-19.2 4-20L4-20 2-20Q1.8-20.85 1.8-22L1.8-22Q1.8-23.2 2-24L2-24Q1.8-24.85 1.8-26L1.8-26Q1.8-27.2 2-28L2-28 6-28Q6.2-27.2 6.2-26L6.2-26Q6.2-24.85 6-24L6-24Q6.2-23.2 6.2-22L6.2-22Q6.2-20.85 6-20L6-20 8-20Q8.2-19.2 8.2-18L8.2-18Q8.2-16.85 8-16L8-16 12-16Q11.8-16.85 11.8-18L11.8-18Q11.8-19.2 12-20L12-20 14-20Q13.8-20.85 13.8-22L13.8-22Q13.8-23.2 14-24L14-24Q13.8-24.85 13.8-26L13.8-26Q13.8-27.2 14-28L14-28 18-28Q18.2-27.2 18.2-26L18.2-26Z" opacity="1" transform="matrix(1,0,0,1,0,0)" fill="#000000" class="wordmark-text-0" data-fill-palette-color="primary" id="text-0"></path></svg></g></svg></g></svg></g></svg></g></svg></g></svg></g><path d="M335.322 41.215L335.322 0 88.122 0 88.122 247.2 335.322 247.2 335.322 205.985 321.545 205.985 321.545 233.423 101.899 233.423 101.899 13.777 321.545 13.777 321.545 41.215Z" fill="#000000" stroke="transparent" data-fill-palette-color="tertiary"></path></svg></g><defs></defs></svg><rect width="395.52" height="247.2" fill="none" stroke="none" visibility="hidden"></rect></g></svg></g></svg>